<?xml version="1.0" encoding="utf-8"?>
<!-- Generator: Adobe Illustrator 16.0.0, SVG Export Plug-In . SVG Version: 6.00 Build 0)  -->
<!DOCTYPE svg PUBLIC "-//W3C//DTD SVG 1.1//EN" "http://www.w3.org/Graphics/SVG/1.1/DTD/svg11.dtd">
<svg version="1.1" id="Layer_1" xmlns="http://www.w3.org/2000/svg" xmlns:xlink="http://www.w3.org/1999/xlink" x="0px" y="0px"
	 width="369.108px" height="369.097px" viewBox="0 0 369.108 369.097" enable-background="new 0 0 369.108 369.097"
	 xml:space="preserve">
<path fill-rule="evenodd" clip-rule="evenodd" fill="#FFFFFF" d="M61.494,93.661c11.484,0.009,20.396-8.922,20.397-20.444
	c0.002-11.504-8.935-20.422-20.44-20.396c-11.539,0.025-20.404,8.911-20.392,20.439C41.072,84.785,49.953,93.652,61.494,93.661z"/>
<path fill-rule="evenodd" clip-rule="evenodd" fill="#FFFFFF" d="M17.785,140.554v204.373c3.457,0.398,4.762,3.888,3.918,6.627
	h80.002c-0.46-2.608,0.9-5.592,4.08-5.96v-102.04l10-103H17.785z"/>
<path fill-rule="evenodd" clip-rule="evenodd" fill="#FFFFFF" d="M307.494,93.661c11.484,0.009,20.396-8.922,20.397-20.444
	c0.002-11.504-8.935-20.422-20.44-20.396c-11.539,0.025-20.404,8.911-20.392,20.439C287.072,84.785,295.953,93.652,307.494,93.661z"
	/>
<path fill-rule="evenodd" clip-rule="evenodd" fill="#FFFFFF" d="M256.785,140.554l7,105.5v10.845
	c0.299,0.215,0.59,0.475,0.869,0.786c4.751,5.297,5.521,11.467,5.667,17.869h76.337c-0.073-6.437,1.178-12.819,2.973-18.997
	c0.399-1.376,1.189-2.313,2.154-2.872V140.554H256.785z"/>
<path fill-rule="evenodd" clip-rule="evenodd" fill="#FFFFFF" d="M187.548,213.734c11.484,0.01,20.396-8.922,20.397-20.444
	c0.002-11.504-8.935-20.422-20.44-20.396c-11.539,0.025-20.404,8.911-20.392,20.439
	C167.126,204.859,176.007,213.726,187.548,213.734z"/>
<path fill-rule="evenodd" clip-rule="evenodd" fill="#FFFFFF" d="M219.959,298.494c1.603-3.325,2.5-6.92,1.672-10.611
	c-0.743-3.31,1.582-5.613,4.154-6.135v-38.193h-77v39.772c1.146,0.794,1.959,2.092,2,3.894c0.092,4.022,0.977,8.928,2.97,13.054
	c1.721,1.333,3.39,2.723,4.87,4.28h57.586C217.313,302.433,218.547,300.402,219.959,298.494z"/>
<g>
	<g>
		<path fill-rule="evenodd" clip-rule="evenodd" fill="#464D56" d="M70.465,296.779c0,15.125-0.055,30.25,0.028,45.376
			c0.032,5.962,3.483,9.51,8.743,9.406c5.215-0.103,8.563-3.819,8.568-9.755c0.028-30.503,0.001-61.005,0.024-91.508
			c0.005-6.498,3.669-10.264,9.482-9.911c4.05,0.244,6.979,2.766,7.767,6.817c0.262,1.338,0.376,2.725,0.377,4.09
			c0.021,30.002,0.081,60.005-0.006,90.007c-0.055,19.185-16.25,31.893-33.9,26.748c-1.661-0.484-3.57-0.9-4.781-1.993
			c-3.611-3.258-6.463-2.436-10.544-0.178c-17.771,9.825-38.601-3.022-38.726-23.732c-0.16-26.626-0.108-53.255,0.043-79.881
			c0.02-3.474-0.609-5.139-4.381-4.486c-1.335,0.231-2.744,0.067-4.119,0.029c-5.629-0.154-8.999-3.56-9.02-9.248
			c-0.04-11.126-0.012-22.252-0.012-33.378c0-17.626-0.005-35.253,0.001-52.879c0.007-21.047,13.778-37.391,34.683-38.837
			c19.666-1.36,39.502-1.455,59.182,0.156c17.025,1.395,30.302,15.083,32.939,31.912c2.221,14.17,3.629,28.48,6.705,42.499
			c5.352,24.391,28.422,41.678,53.333,42.193c24.579,0.509,51.525-18.706,53.374-50.418c0.652-11.208,1.926-22.407,3.486-33.528
			c2.631-18.743,15.844-31.941,34.684-32.93c19.314-1.015,38.76-1.385,58.07,0.301c17.77,1.551,32.469,18.076,32.559,35.869
			c0.148,29.752,0.059,59.505,0.025,89.257c-0.006,5.423-3.459,8.813-8.859,9.046c-2.722,0.117-6.278-1.172-7.949,0.516
			c-1.824,1.842-0.558,5.443-0.592,8.271c-0.066,5.497,0.025,10.998,0.097,16.497c0.079,6.094-3.546,9.903-9.568,9.959
			c-2.375,0.021-4.771,0.191-7.12-0.063c-3.166-0.343-4.221,0.517-4.188,3.987c0.192,20.749,0.112,41.502,0.083,62.254
			c-0.008,5.41-2.305,8.677-6.533,9.595c-6.075,1.318-10.845-2.563-10.854-8.967c-0.031-21.002-0.082-42.005,0.065-63.005
			c0.021-3.086-0.674-3.99-3.846-3.899c-8.109,0.23-8.115,0.063-8.115,8.231c0,19.252-0.032,38.504,0.025,57.755
			c0.012,4.056-1.014,7.436-4.904,9.303c-6.066,2.911-12.467-1.226-12.479-8.105c-0.035-21.127-0.095-42.255,0.074-63.38
			c0.025-3.251-0.936-4.086-3.955-3.772c-2.473,0.257-4.997,0.113-7.494,0.03c-5.828-0.193-9.498-3.999-9.482-9.83
			c0.031-10.874,0.069-21.748,0.164-32.621c0.049-5.651,2.374-9.079,6.615-10.02c6.007-1.33,10.906,2.567,10.997,8.949
			c0.108,7.625,0.099,15.252-0.018,22.877c-0.034,2.185,0.409,3.045,2.845,3.028c15.617-0.111,31.236-0.117,46.854,0.003
			c2.584,0.02,3.086-0.903,3.047-3.225c-0.125-7.249-0.081-14.501-0.035-21.751c0.042-6.862,3.225-10.009,10.117-10.129
			c7.564-0.132,7.564-0.132,7.564-7.693c0-23.377,0.041-46.753-0.02-70.13c-0.027-11.021-5.979-18.93-15.879-21.248
			c-1.799-0.422-3.709-0.502-5.569-0.506c-16.001-0.037-32.003-0.048-48.004-0.014c-11.688,0.025-19.808,6.812-21.282,18.385
			c-1.688,13.251-2.57,26.607-4.35,39.844c-4.022,29.933-29.59,54.706-59.627,58.2c-39.887,4.641-74.568-20.766-81.817-60.225
			c-2.231-12.146-3.815-24.415-5.492-36.655c-1.733-12.658-9.406-19.549-22.196-19.555c-16.127-0.009-32.254-0.029-48.379,0.006
			c-12.722,0.028-21.377,8.266-21.463,20.959c-0.171,25.251-0.023,50.504-0.104,75.756c-0.008,2.394,0.85,3.112,3.057,2.896
			c1.238-0.121,2.498-0.027,3.748-0.02c7.939,0.044,10.915,2.98,10.933,10.823c0.017,7,0.003,14.001,0.003,21.002
			c0,23.002,0.009,46.004-0.01,69.006c-0.002,2.54,0.155,4.985,1.813,7.098c2.175,2.771,6.015,4.005,9.421,2.964
			c3.863-1.179,6.121-4.103,6.129-8.397c0.064-30.377,0.075-60.754,0.109-91.131c0.002-1.743-0.077-3.481,0.475-5.198
			c1.289-4.012,4.466-6.264,8.789-6.11c4.061,0.144,7.135,2.581,8.012,6.574c0.344,1.566,0.412,3.218,0.415,4.832
			c0.029,15,0.018,30.002,0.018,45.003C70.379,296.779,70.422,296.779,70.465,296.779z"/>
		<path fill-rule="evenodd" clip-rule="evenodd" fill="#464D56" d="M164.084,338.298c-0.002-6.874-0.089-13.75,0.047-20.622
			c0.046-2.325-0.663-3.886-2.406-5.479c-10.32-9.441-13.376-21.561-12.244-35.006c0.387-4.592,4.148-7.544,8.772-7.529
			c4.483,0.015,7.835,2.779,8.481,7.359c0.364,2.581,0.232,5.23,0.336,7.849c0.454,11.416,9.408,19.974,20.699,19.787
			c11.184-0.186,19.813-8.767,20.106-20.012c0.059-2.249-0.099-4.513,0.11-6.745c0.467-4.979,3.896-8.206,8.531-8.241
			c5.002-0.038,8.635,2.986,9.004,8.119c0.972,13.483-2.275,25.548-12.793,34.814c-1.627,1.432-1.967,2.93-1.959,4.896
			c0.049,13.999,0.033,27.997,0.021,41.996c-0.004,5.879-3.338,9.582-8.598,9.612c-5.297,0.03-8.745-3.561-8.785-9.458
			c-0.076-11.373-0.113-22.749,0.039-34.121c0.038-2.797-0.596-3.769-3.521-3.347c-2.651,0.384-6.769-0.857-7.759,0.469
			c-1.402,1.879-0.602,5.458-0.613,8.311c-0.035,9.499,0.004,18.998-0.02,28.498c-0.014,5.884-3.371,9.614-8.605,9.646
			c-5.328,0.033-8.73-3.488-8.818-9.424C164.006,352.548,164.086,345.423,164.084,338.298z"/>
		<path fill-rule="evenodd" clip-rule="evenodd" fill="#464D56" d="M307.59,35.109c20.951,0.016,38.131,17.178,38.145,38.105
			c0.013,20.91-17.187,38.13-38.129,38.174c-20.855,0.043-38.094-17.188-38.15-38.134C269.399,52.38,286.682,35.093,307.59,35.109z
			 M328.017,73.293c0.014-11.542-8.828-20.431-20.363-20.474c-11.509-0.043-20.468,8.869-20.468,20.36
			c0,11.553,8.866,20.473,20.356,20.479C319.079,93.668,328.004,84.791,328.017,73.293z"/>
		<path fill-rule="evenodd" clip-rule="evenodd" fill="#464D56" d="M23.344,73.232c0.028-20.963,17.219-38.151,38.125-38.123
			c20.963,0.027,38.13,17.19,38.154,38.144c0.023,20.817-17.332,38.171-38.141,38.136C40.517,111.353,23.314,94.142,23.344,73.232z
			 M61.494,93.661c11.484,0.009,20.396-8.922,20.397-20.444c0.002-11.504-8.935-20.422-20.44-20.396
			c-11.539,0.025-20.404,8.911-20.392,20.439C41.072,84.785,49.953,93.652,61.494,93.661z"/>
		<path fill-rule="evenodd" clip-rule="evenodd" fill="#464D56" d="M187.27,222.561c-16.178-0.02-29.006-13.034-28.987-29.407
			c0.017-15.932,13.102-29.046,29.022-29.087c16.238-0.042,29.519,13.252,29.471,29.501
			C216.729,209.601,203.52,222.582,187.27,222.561z M187.635,205.13c6.299-0.117,11.658-5.661,11.533-11.932
			c-0.125-6.369-5.557-11.645-11.886-11.541c-6.3,0.103-11.696,5.648-11.576,11.897C175.827,199.836,181.402,205.247,187.635,205.13
			z"/>
	</g>
	<path fill-rule="evenodd" clip-rule="evenodd" fill="#84D898" d="M203.325,87.199c0.021-6.023-2.683-9.877-8.601-11.561
		c-5.745-1.633-11.589-2.916-17.387-4.363c-14.433-3.604-23.871-15.697-23.591-30.221c0.235-12.164,8.818-23.531,20.885-27.328
		c2.654-0.836,4.095-1.637,4.048-4.945c-0.075-5.422,3.582-8.727,8.653-8.78c5.28-0.056,8.863,3.249,8.988,8.874
		c0.061,2.734,0.808,3.648,3.571,4.334c11.829,2.936,20.407,13.512,21.293,25.621c0.429,5.848-2.58,10.1-7.569,10.697
		c-5.229,0.625-8.83-2.352-10.03-8.293c-1.859-9.213-4.424-11.291-13.939-11.295c-1.874-0.002-3.748-0.016-5.622,0.006
		c-6.563,0.078-11.678,4.105-12.311,9.676c-0.846,7.449,2.463,12.559,9.466,14.342c5.428,1.383,10.911,2.539,16.351,3.875
		c7.399,1.818,13.446,5.6,18.04,11.854c11.454,15.594,4.553,38.645-13.745,45.15c-3.275,1.164-5.795,1.848-5.71,6.514
		c0.094,5.082-4.072,7.957-9.135,7.768c-4.69-0.176-8.247-3.355-8.29-8.385c-0.028-3.334-1.261-4.215-4.236-5.029
		c-11.689-3.197-19.694-13.217-20.683-25.252c-0.43-5.234,1.707-8.988,5.963-10.477c3.653-1.279,8.025,0.252,10.201,3.521
		c1.311,1.969,1.24,4.289,1.669,6.463c1.064,5.4,3.882,8.135,9.354,9.234c4.633,0.93,9.223,0.596,13.75-0.283
		C199.721,97.941,203.305,92.81,203.325,87.199z"/>
</g>
</svg>
